HIERARCHY
ROOT Hips
{
	OFFSET -0.001795 -0.223333 0.028219
	CHANNELS 6 Xposition Yposition Zposition Zrotation Yrotation Xrotation 
	JOINT LeftUpLeg
	{
		OFFSET 0.069520 -0.091406 -0.006815
		CHANNELS 3 Zrotation Yrotation Xrotation
		JOINT LeftLeg
		{
			OFFSET 0.034277 -0.375199 -0.004496
			CHANNELS 3 Zrotation Yrotation Xrotation
			JOINT LeftFoot
			{
				OFFSET -0.013596 -0.397961 -0.043693
				CHANNELS 3 Zrotation Yrotation Xrotation
				JOINT LeftToe
				{
					OFFSET 0.026358 -0.055791 0.119288
					CHANNELS 3 Zrotation Yrotation Xrotation
					End Site
					{
						OFFSET 0.000000 0.000000 0.000000
					}
				}
			}
		}
	}
	JOINT RightUpLeg
	{
		OFFSET -0.067670 -0.090522 -0.004320
		CHANNELS 3 Zrotation Yrotation Xrotation
		JOINT RightLeg
		{
			OFFSET -0.038290 -0.382569 -0.008850
			CHANNELS 3 Zrotation Yrotation Xrotation
			JOINT RightFoot
			{
				OFFSET 0.015774 -0.398415 -0.042312
				CHANNELS 3 Zrotation Yrotation Xrotation
				JOINT RightToe
				{
					OFFSET -0.025372 -0.048144 0.123348
					CHANNELS 3 Zrotation Yrotation Xrotation
					End Site
					{
						OFFSET 0.000000 0.000000 0.000000
					}
				}
			}
		}
	}
	JOINT Spine
	{
		OFFSET -0.002533 0.108963 -0.026696
		CHANNELS 3 Zrotation Yrotation Xrotation
		JOINT Spine1
		{
			OFFSET 0.005487 0.135180 0.001092
			CHANNELS 3 Zrotation Yrotation Xrotation
			JOINT Spine2
			{
				OFFSET 0.001457 0.052922 0.025425
				CHANNELS 3 Zrotation Yrotation Xrotation
				JOINT Neck
				{
					OFFSET -0.002778 0.213870 -0.042857
					CHANNELS 3 Zrotation Yrotation Xrotation
					JOINT Head
					{
						OFFSET 0.005152 0.064970 0.051349
						CHANNELS 3 Zrotation Yrotation Xrotation
						End Site
						{
							OFFSET 0.000000 0.000000 0.000000
						}
					}
				}
				JOINT LeftShoulder
				{
					OFFSET 0.078845 0.121749 -0.034090
					CHANNELS 3 Zrotation Yrotation Xrotation
					JOINT LeftArm
					{
						OFFSET 0.090977 0.030469 -0.008868
						CHANNELS 3 Zrotation Yrotation Xrotation
						JOINT LeftForeArm
						{
							OFFSET 0.259612 -0.012772 -0.027456
							CHANNELS 3 Zrotation Yrotation Xrotation
							JOINT LeftHand
							{
								OFFSET 0.249234 0.008986 -0.001171
								CHANNELS 3 Zrotation Yrotation Xrotation
								End Site
								{
									OFFSET 0.000000 0.000000 0.000000
								}
							}
						}
					}
				}
				JOINT RightShoulder
				{
					OFFSET -0.081759 0.118833 -0.038615
					CHANNELS 3 Zrotation Yrotation Xrotation
					JOINT RightArm
					{
						OFFSET -0.096012 0.032551 -0.009143
						CHANNELS 3 Zrotation Yrotation Xrotation
						JOINT RightForeArm
						{
							OFFSET -0.253742 -0.013329 -0.021401
							CHANNELS 3 Zrotation Yrotation Xrotation
							JOINT RightHand
							{
								OFFSET -0.255298 0.007772 -0.005559
								CHANNELS 3 Zrotation Yrotation Xrotation
								End Site
								{
									OFFSET 0.000000 0.000000 0.000000
								}
							}
						}
					}
				}
			}
		}
	}
}
MOTION
Frames: 5
Frame Time: 0.050000
0.000000 0.949309 0.000000 -0.515865 -2.513887 5.781109 5.618881 -0.244222 -2.974383 0.855509 0.542267 -14.287239 -5.484187 -2.711061 16.891456 0.000000 0.000000 0.000000 -4.637660 0.409812 -3.585013 4.097588 -0.410117 -3.126778 -15.323500 -29.581187 25.666007 0.000000 0.000000 0.000000 6.778947 0.191783 -3.649467 -4.015504 1.685729 -10.276608 -2.305234 7.493156 14.767286 8.559883 -4.161734 -13.687988 0.000000 0.000000 0.000000 -15.959490 -4.407914 -0.348838 -52.302785 -6.405540 -4.255310 -16.759319 -22.373187 3.960940 0.000000 0.000000 0.000000 19.538302 -6.285715 -3.512725 59.390767 6.116370 -3.803209 11.344363 22.456265 3.247554 0.000000 0.000000 0.000000 
0.000561 0.946996 0.001269 -0.772795 -2.735265 6.645259 5.978427 -0.256268 -3.109976 0.686635 0.602438 -15.481146 -5.307197 -2.509446 16.830723 0.000000 0.000000 0.000000 -4.215573 0.477866 -4.576683 3.724294 -0.379488 -2.922701 -15.355936 -29.748867 25.059737 0.000000 0.000000 0.000000 7.504082 0.309221 -4.835525 -4.529382 1.867963 -10.102706 -2.452576 7.600703 15.038088 8.084374 -3.864640 -13.543964 0.000000 0.000000 0.000000 -16.370077 -3.446559 -0.862615 -50.869231 -6.225422 -4.206362 -17.934384 -22.433744 4.199853 0.000000 0.000000 0.000000 19.020527 -6.850992 -3.797791 60.744653 5.637012 -4.052948 11.270090 22.930124 3.330478 0.000000 0.000000 0.000000 
0.000849 0.947424 0.002072 -0.392414 -2.298626 6.542035 5.657302 -0.273882 -3.401042 0.469173 0.561775 -14.873578 -5.518889 -2.806650 16.738781 0.000000 0.000000 0.000000 -4.554581 0.483050 -4.711817 3.619809 -0.371763 -2.301700 -15.685885 -30.097544 25.287623 0.000000 0.000000 0.000000 6.899613 0.347163 -5.298744 -3.835786 1.619669 -10.219184 -3.065301 7.630246 15.601310 8.321632 -4.220392 -12.506039 0.000000 0.000000 0.000000 -16.037656 -4.199817 -0.503206 -51.015688 -6.541200 -4.154397 -17.669784 -21.139475 3.890426 0.000000 0.000000 0.000000 19.759024 -6.271661 -3.404458 59.790914 5.577185 -4.207595 11.064884 23.353059 3.391043 0.000000 0.000000 0.000000 
0.001071 0.947071 0.002686 -0.418194 -2.866514 6.837349 6.026534 -0.274594 -3.576504 -0.145574 0.559627 -14.858927 -5.184352 -2.428996 16.628361 0.000000 0.000000 0.000000 -4.566129 0.525266 -5.270217 3.554115 -0.358755 -1.955344 -15.393933 -29.840114 24.908538 0.000000 0.000000 0.000000 6.742514 0.397376 -5.822077 -4.015064 1.684788 -9.632113 -2.564466 7.395655 15.062820 8.194253 -4.330027 -11.735745 0.000000 0.000000 0.000000 -16.643453 -3.206469 -0.960968 -51.351577 -6.660420 -4.073705 -17.368169 -20.795762 3.797777 0.000000 0.000000 0.000000 19.106690 -6.619601 -3.716634 59.980367 5.397924 -4.196620 11.581477 23.666455 3.517667 0.000000 0.000000 0.000000 
0.001260 0.947208 0.003111 -0.342320 -2.645124 6.791018 5.930292 -0.278061 -3.583070 -0.151448 0.553039 -14.796222 -5.303471 -2.574308 16.636773 0.000000 0.000000 0.000000 -4.533433 0.508710 -5.039981 3.364857 -0.347905 -2.172745 -15.512633 -29.943526 25.079068 0.000000 0.000000 0.000000 6.301264 0.407708 -6.037263 -3.032456 1.324208 -9.489166 -3.121316 7.276974 14.926160 8.250293 -4.269987 -12.170891 0.000000 0.000000 0.000000 -16.390759 -3.023601 -1.046205 -51.580192 -6.562809 -4.127873 -17.950693 -20.250527 3.789806 0.000000 0.000000 0.000000 19.155576 -6.688479 -3.736372 59.544921 5.049384 -4.351946 12.065241 24.176662 3.715377 0.000000 0.000000 0.000000 
